<svg id="Layer_1" data-name="Layer 1" xmlns="http://www.w3.org/2000/svg" viewBox="0 0 1300 300"><defs><style>.cls-1{opacity:0.1;}.cls-2{fill:#858080;}</style></defs><title>news</title><g class="cls-1"><path class="cls-2" d="M444.92,53.76V245.65H400.54L330.22,123.34l-.73.29v122H284.81V53.76h44.68l70.17,122.31.88-.29v-122Z"/><path class="cls-2" d="M595.22,129.2v34.28h-75.3v47.9h88.63v34.27H475.24V53.76h133.6V88H519.92V129.2Z"/><path class="cls-2" d="M749.17,53.76,783.3,179.59H784l25.2-125.83H852.3L808.35,245.65h-42L734.08,127.29h-.88L701.27,245.65H659.38L615.14,53.76h43.21l25.2,125.83h.87L718.26,53.76Z"/><path class="cls-2" d="M943.12,215v.15q13.62,0,20.5-5.35t6.89-15q0-9.66-6.37-15.16t-24.39-12.08q-39-12.17-55.23-25.42T868.26,105q0-24,20.66-38.82T942,51.27q32.44,0,52.66,16.41t19.48,42.18l-.29.88H970.65q0-11.86-7.83-18.89t-21.24-7q-13.41,0-21.17,5.86T912.65,105q0,8.49,7.32,13.62t29.3,13q34.28,10.11,50.1,24.46t15.82,39.11q0,24.77-19.56,39.12t-52.51,14.35q-22.27,0-40.29-7.1A64.77,64.77,0,0,1,873.9,219.8Q863,205.09,863.43,185l.14-.73h43.51q0,16.26,8.72,23.51T943.12,215Z"/></g></svg>