<svg id="Layer_1" data-name="Layer 1" xmlns="http://www.w3.org/2000/svg" viewBox="0 0 1300 300"><defs><style>.cls-1{opacity:0.1;}.cls-2{fill:#858080;}</style></defs><title>players</title><g class="cls-1"><path class="cls-2" d="M153.71,179.88H120.46v65.77H75.78V53.76h77.93q34.13,0,54.13,17.28t20,45.85q0,28.58-20,45.78T153.71,179.88ZM120.46,88v57.57h33.25q14.21,0,21.9-7.77T183.3,117q0-13.11-7.69-21T153.71,88Z"/><path class="cls-2" d="M297.71,53.76V211.38h82.61v34.27H253V53.76Z"/><path class="cls-2" d="M514.65,245.65l-11-37.35h-60.5l-10.84,37.35H387.5l62-191.89h47.9l62.11,191.89Zm-41.6-140.33L453.13,174h40.72l-20.07-68.7Z"/><path class="cls-2" d="M666,245.65H621.58V175.93l-64-122.17h48.19l38.09,83.79h.73l38.23-83.79H731.3L666,178.13Z"/><path class="cls-2" d="M865.77,129.2v34.28H790.48v47.9H879.1v34.27H745.8V53.76H879.39V88H790.48V129.2Z"/><path class="cls-2" d="M944.14,245.36H899.46V53.47h73.83q33.54,0,53,15.38t19.4,42.19q0,29.43-31.05,43.06,17.28,5,25.2,16.41t7.91,29.44v12a68.07,68.07,0,0,0,2.49,18.17q2.47,9.08,7.61,12.89v2.63h-46q-8.51-6.74-8.5-33.69V200.24q0-13.76-7.25-20.94t-21.31-7.18l-30.62-.29Zm0-157.32v49.8h29.3q13.47,0,20.58-6.08t7.1-17.87q0-11.79-7.32-18.82t-20.51-7Z"/><path class="cls-2" d="M1152.15,215v.15q13.62,0,20.51-5.35t6.88-15q0-9.66-6.37-15.16t-24.39-12.08q-39-12.17-55.23-25.42T1077.3,105q0-24,20.65-38.82t53.1-14.87q32.45,0,52.66,16.41t19.48,42.18l-.29.88h-43.21q0-11.86-7.84-18.89t-21.24-7q-13.39,0-21.17,5.86T1121.68,105q0,8.49,7.32,13.62t29.3,13q34.28,10.11,50.1,24.46t15.82,39.11q0,24.77-19.56,39.12t-52.51,14.35q-22.28,0-40.28-7.1a64.74,64.74,0,0,1-28.94-21.83Q1072,205.09,1072.46,185l.15-.73h43.5q0,16.26,8.72,23.51T1152.15,215Z"/></g></svg>